<svg width="389" height="77" viewBox="0 0 389 77" fill="none" xmlns="http://www.w3.org/2000/svg">
<path d="M26.5792 39.2756C26.4656 38.1297 25.9779 37.2396 25.1161 36.6051C24.2544 35.9706 23.0849 35.6534 21.6076 35.6534C20.6038 35.6534 19.7563 35.7955 19.065 36.0795C18.3737 36.3542 17.8434 36.7377 17.4741 37.2301C17.1142 37.7225 16.9343 38.2812 16.9343 38.9062C16.9154 39.4271 17.0243 39.8816 17.261 40.2699C17.5072 40.6581 17.8434 40.9943 18.2695 41.2784C18.6957 41.553 19.1881 41.7945 19.7468 42.0028C20.3055 42.2017 20.9021 42.3722 21.5366 42.5142L24.1502 43.1392C25.4192 43.4233 26.5839 43.8021 27.6445 44.2756C28.7051 44.7491 29.6237 45.3314 30.4002 46.0227C31.1767 46.714 31.7781 47.5284 32.2042 48.4659C32.6398 49.4034 32.8623 50.4782 32.8718 51.6903C32.8623 53.4706 32.4078 55.0142 31.5082 56.321C30.618 57.6184 29.3301 58.6269 27.6445 59.3466C25.9684 60.0568 23.9466 60.4119 21.5792 60.4119C19.2307 60.4119 17.1853 60.0521 15.4428 59.3324C13.7099 58.6127 12.3557 57.5473 11.3803 56.1364C10.4144 54.7159 9.90779 52.9593 9.86044 50.8665H15.8121C15.8784 51.8419 16.1578 52.6562 16.6502 53.3097C17.1521 53.9536 17.8197 54.4413 18.6531 54.7727C19.4959 55.0947 20.4476 55.2557 21.5082 55.2557C22.5498 55.2557 23.4542 55.1042 24.2212 54.8011C24.9978 54.4981 25.5991 54.0767 26.0252 53.5369C26.4514 52.9972 26.6644 52.3769 26.6644 51.6761C26.6644 51.0227 26.4703 50.4735 26.082 50.0284C25.7032 49.5833 25.1445 49.2045 24.4059 48.892C23.6767 48.5795 22.7818 48.2955 21.7212 48.0398L18.5536 47.2443C16.101 46.6477 14.1644 45.715 12.744 44.446C11.3235 43.1771 10.618 41.4678 10.6275 39.3182C10.618 37.5568 11.0868 36.018 12.0337 34.7017C12.9902 33.3854 14.3017 32.358 15.9684 31.6193C17.6351 30.8807 19.529 30.5114 21.6502 30.5114C23.8093 30.5114 25.6938 30.8807 27.3036 31.6193C28.9229 32.358 30.1824 33.3854 31.082 34.7017C31.9817 36.018 32.4457 37.5426 32.4741 39.2756H26.5792ZM48.5004 38.1818V42.7273H35.3612V38.1818H48.5004ZM38.3441 32.9545H44.3952V53.2955C44.3952 53.8542 44.4805 54.2898 44.6509 54.6023C44.8214 54.9053 45.0581 55.1184 45.3612 55.2415C45.6737 55.3646 46.0335 55.4261 46.4407 55.4261C46.7248 55.4261 47.0089 55.4025 47.293 55.3551C47.5771 55.2983 47.7949 55.2557 47.9464 55.2273L48.8981 59.7301C48.5951 59.8248 48.1689 59.9337 47.6197 60.0568C47.0704 60.1894 46.4028 60.2699 45.6168 60.2983C44.1585 60.3551 42.8801 60.161 41.7816 59.7159C40.6926 59.2708 39.8451 58.5795 39.239 57.642C38.6329 56.7045 38.3346 55.5208 38.3441 54.0909V32.9545ZM58.6637 60.4119C57.2717 60.4119 56.0311 60.1705 54.9421 59.6875C53.8531 59.1951 52.9914 58.4706 52.3569 57.5142C51.7319 56.5483 51.4194 55.3456 51.4194 53.9062C51.4194 52.6941 51.6419 51.6761 52.087 50.8523C52.5321 50.0284 53.1381 49.3655 53.9052 48.8636C54.6722 48.3617 55.5434 47.983 56.5188 47.7273C57.5037 47.4716 58.5359 47.2917 59.6154 47.1875C60.8844 47.0549 61.9071 46.9318 62.6836 46.8182C63.4601 46.6951 64.0236 46.5152 64.3739 46.2784C64.7243 46.0417 64.8995 45.6913 64.8995 45.2273V45.142C64.8995 44.2424 64.6154 43.5464 64.0472 43.054C63.4885 42.5616 62.6931 42.3153 61.6609 42.3153C60.5719 42.3153 59.7054 42.5568 59.0614 43.0398C58.4175 43.5133 57.9914 44.1098 57.783 44.8295L52.1864 44.375C52.4705 43.0492 53.0292 41.9034 53.8626 40.9375C54.6959 39.9621 55.7707 39.214 57.087 38.6932C58.4128 38.1629 59.9469 37.8977 61.6893 37.8977C62.9014 37.8977 64.0614 38.0398 65.1694 38.3239C66.2868 38.608 67.2764 39.0483 68.1381 39.6449C69.0094 40.2415 69.6959 41.0085 70.1978 41.946C70.6997 42.8741 70.9506 43.9867 70.9506 45.2841V60H65.212V56.9744H65.0415C64.6912 57.6562 64.2224 58.2576 63.6353 58.7784C63.0482 59.2898 62.3427 59.6922 61.5188 59.9858C60.695 60.2699 59.7433 60.4119 58.6637 60.4119ZM60.3967 56.2358C61.2868 56.2358 62.0728 56.0606 62.7546 55.7102C63.4364 55.3504 63.9715 54.8674 64.3597 54.2614C64.748 53.6553 64.9421 52.9687 64.9421 52.2017V49.8864C64.7527 50.0095 64.4923 50.1231 64.1609 50.2273C63.8389 50.322 63.4743 50.4119 63.0671 50.4972C62.6599 50.5729 62.2527 50.6439 61.8455 50.7102C61.4383 50.767 61.069 50.8191 60.7376 50.8665C60.0273 50.9706 59.4071 51.1364 58.8768 51.3636C58.3465 51.5909 57.9345 51.8987 57.641 52.2869C57.3474 52.6657 57.2006 53.1392 57.2006 53.7074C57.2006 54.5312 57.4989 55.161 58.0955 55.5966C58.7016 56.0227 59.4686 56.2358 60.3967 56.2358ZM75.6452 60V38.1818H81.5117V41.9886H81.739C82.1367 40.6345 82.8043 39.6117 83.7418 38.9205C84.6793 38.2197 85.7589 37.8693 86.9805 37.8693C87.2835 37.8693 87.6102 37.8883 87.9606 37.9261C88.311 37.964 88.6187 38.0161 88.8839 38.0824V43.4517C88.5998 43.3665 88.2068 43.2907 87.7049 43.2244C87.203 43.1581 86.7437 43.125 86.3271 43.125C85.4369 43.125 84.6415 43.3191 83.9407 43.7074C83.2494 44.0862 82.7002 44.6165 82.293 45.2983C81.8952 45.9801 81.6964 46.7661 81.6964 47.6562V60H75.6452ZM104.711 38.1818V42.7273H91.5721V38.1818H104.711ZM94.555 32.9545H100.606V53.2955C100.606 53.8542 100.691 54.2898 100.862 54.6023C101.032 54.9053 101.269 55.1184 101.572 55.2415C101.885 55.3646 102.244 55.4261 102.652 55.4261C102.936 55.4261 103.22 55.4025 103.504 55.3551C103.788 55.2983 104.006 55.2557 104.157 55.2273L105.109 59.7301C104.806 59.8248 104.38 59.9337 103.831 60.0568C103.281 60.1894 102.614 60.2699 101.828 60.2983C100.369 60.3551 99.091 60.161 97.9925 59.7159C96.9035 59.2708 96.056 58.5795 95.4499 57.642C94.8439 56.7045 94.5456 55.5208 94.555 54.0909V32.9545ZM122.645 50.7102V38.1818H128.696V60H122.886V56.0369H122.659C122.166 57.3153 121.347 58.3428 120.201 59.1193C119.065 59.8958 117.678 60.2841 116.039 60.2841C114.581 60.2841 113.298 59.9527 112.19 59.2898C111.082 58.6269 110.216 57.6847 109.591 56.4631C108.975 55.2415 108.663 53.7784 108.653 52.0739V38.1818H114.704V50.9943C114.714 52.2822 115.059 53.3002 115.741 54.0483C116.423 54.7964 117.337 55.1705 118.483 55.1705C119.212 55.1705 119.894 55.0047 120.528 54.6733C121.163 54.3324 121.674 53.8305 122.062 53.1676C122.46 52.5047 122.654 51.6856 122.645 50.7102ZM133.536 68.1818V38.1818H139.502V41.8466H139.772C140.037 41.2595 140.42 40.6629 140.922 40.0568C141.434 39.4413 142.096 38.9299 142.911 38.5227C143.735 38.1061 144.757 37.8977 145.979 37.8977C147.57 37.8977 149.038 38.3144 150.382 39.1477C151.727 39.9716 152.802 41.2169 153.607 42.8835C154.412 44.5407 154.814 46.6193 154.814 49.1193C154.814 51.553 154.421 53.608 153.635 55.2841C152.859 56.9508 151.798 58.215 150.453 59.0767C149.118 59.929 147.622 60.3551 145.965 60.3551C144.791 60.3551 143.792 60.161 142.968 59.7727C142.153 59.3845 141.486 58.8968 140.965 58.3097C140.444 57.7131 140.046 57.1117 139.772 56.5057H139.587V68.1818H133.536ZM139.459 49.0909C139.459 50.3883 139.639 51.5199 139.999 52.4858C140.359 53.4517 140.88 54.2045 141.561 54.7443C142.243 55.2746 143.072 55.5398 144.047 55.5398C145.032 55.5398 145.865 55.2699 146.547 54.7301C147.229 54.1809 147.745 53.4233 148.096 52.4574C148.455 51.482 148.635 50.3598 148.635 49.0909C148.635 47.8314 148.46 46.7235 148.11 45.767C147.759 44.8106 147.243 44.0625 146.561 43.5227C145.88 42.983 145.042 42.7131 144.047 42.7131C143.062 42.7131 142.229 42.9735 141.547 43.4943C140.875 44.0152 140.359 44.7538 139.999 45.7102C139.639 46.6667 139.459 47.7936 139.459 49.0909Z" fill="#FFC240"/>
<path d="M180.525 60H170.212V30.9091H180.61C183.536 30.9091 186.055 31.4915 188.167 32.6562C190.278 33.8116 191.902 35.4735 193.039 37.642C194.185 39.8106 194.757 42.4053 194.757 45.4261C194.757 48.4564 194.185 51.0606 193.039 53.2386C191.902 55.4167 190.269 57.0881 188.138 58.2528C186.017 59.4176 183.479 60 180.525 60ZM176.363 54.7301H180.269C182.087 54.7301 183.616 54.4081 184.857 53.7642C186.107 53.1108 187.044 52.1023 187.669 50.7386C188.304 49.3655 188.621 47.5947 188.621 45.4261C188.621 43.2765 188.304 41.5199 187.669 40.1562C187.044 38.7926 186.112 37.7888 184.871 37.1449C183.631 36.5009 182.101 36.179 180.283 36.179H176.363V54.7301ZM199.2 60V38.1818H205.251V60H199.2ZM202.24 35.3693C201.34 35.3693 200.568 35.071 199.924 34.4744C199.29 33.8684 198.973 33.1439 198.973 32.3011C198.973 31.4678 199.29 30.7528 199.924 30.1562C200.568 29.5502 201.34 29.2472 202.24 29.2472C203.139 29.2472 203.906 29.5502 204.541 30.1562C205.185 30.7528 205.507 31.4678 205.507 32.3011C205.507 33.1439 205.185 33.8684 204.541 34.4744C203.906 35.071 203.139 35.3693 202.24 35.3693ZM210.098 60V38.1818H215.965V41.9886H216.192C216.59 40.6345 217.257 39.6117 218.195 38.9205C219.132 38.2197 220.212 37.8693 221.434 37.8693C221.737 37.8693 222.063 37.8883 222.414 37.9261C222.764 37.964 223.072 38.0161 223.337 38.0824V43.4517C223.053 43.3665 222.66 43.2907 222.158 43.2244C221.656 43.1581 221.197 43.125 220.78 43.125C219.89 43.125 219.095 43.3191 218.394 43.7074C217.703 44.0862 217.153 44.6165 216.746 45.2983C216.348 45.9801 216.15 46.7661 216.15 47.6562V60H210.098ZM235.393 60.4261C233.149 60.4261 231.217 59.9716 229.598 59.0625C227.988 58.1439 226.747 56.8466 225.876 55.1705C225.005 53.4848 224.569 51.4915 224.569 49.1903C224.569 46.946 225.005 44.9763 225.876 43.2812C226.747 41.5862 227.974 40.2652 229.555 39.3182C231.146 38.3712 233.011 37.8977 235.152 37.8977C236.591 37.8977 237.931 38.1297 239.172 38.5938C240.422 39.0483 241.511 39.7348 242.439 40.6534C243.376 41.572 244.105 42.7273 244.626 44.1193C245.147 45.5019 245.407 47.1212 245.407 48.9773V50.6392H226.984V46.8892H239.711C239.711 46.018 239.522 45.2462 239.143 44.5739C238.764 43.9015 238.239 43.3759 237.566 42.9972C236.904 42.6089 236.132 42.4148 235.251 42.4148C234.333 42.4148 233.518 42.6278 232.808 43.054C232.107 43.4706 231.558 44.0341 231.16 44.7443C230.762 45.4451 230.559 46.2263 230.549 47.0881V50.6534C230.549 51.733 230.748 52.6657 231.146 53.4517C231.553 54.2377 232.126 54.8438 232.865 55.2699C233.603 55.696 234.479 55.9091 235.493 55.9091C236.165 55.9091 236.78 55.8144 237.339 55.625C237.898 55.4356 238.376 55.1515 238.774 54.7727C239.172 54.3939 239.475 53.9299 239.683 53.3807L245.279 53.75C244.995 55.0947 244.413 56.2689 243.532 57.2727C242.661 58.267 241.534 59.0436 240.152 59.6023C238.779 60.1515 237.192 60.4261 235.393 60.4261ZM259.214 60.4261C256.979 60.4261 255.057 59.9527 253.447 59.0057C251.847 58.0492 250.616 56.7235 249.754 55.0284C248.902 53.3333 248.475 51.3826 248.475 49.1761C248.475 46.9413 248.906 44.9811 249.768 43.2955C250.639 41.6004 251.875 40.2794 253.475 39.3324C255.076 38.3759 256.979 37.8977 259.186 37.8977C261.089 37.8977 262.756 38.2434 264.186 38.9347C265.616 39.6259 266.747 40.5966 267.581 41.8466C268.414 43.0966 268.873 44.5644 268.958 46.25H263.248C263.087 45.161 262.661 44.285 261.97 43.6222C261.288 42.9498 260.393 42.6136 259.285 42.6136C258.348 42.6136 257.529 42.8693 256.828 43.3807C256.136 43.8826 255.597 44.6165 255.208 45.5824C254.82 46.5483 254.626 47.7178 254.626 49.0909C254.626 50.483 254.815 51.6667 255.194 52.642C255.583 53.6174 256.127 54.3608 256.828 54.8722C257.529 55.3835 258.348 55.6392 259.285 55.6392C259.976 55.6392 260.597 55.4972 261.146 55.2131C261.705 54.929 262.164 54.517 262.524 53.9773C262.893 53.428 263.135 52.7699 263.248 52.0028H268.958C268.864 53.6695 268.409 55.1373 267.595 56.4062C266.79 57.6657 265.677 58.6506 264.257 59.3608C262.836 60.071 261.155 60.4261 259.214 60.4261ZM284.438 38.1818V42.7273H271.299V38.1818H284.438ZM274.282 32.9545H280.333V53.2955C280.333 53.8542 280.418 54.2898 280.588 54.6023C280.759 54.9053 280.996 55.1184 281.299 55.2415C281.611 55.3646 281.971 55.4261 282.378 55.4261C282.662 55.4261 282.946 55.4025 283.23 55.3551C283.515 55.2983 283.732 55.2557 283.884 55.2273L284.836 59.7301C284.533 59.8248 284.106 59.9337 283.557 60.0568C283.008 60.1894 282.34 60.2699 281.554 60.2983C280.096 60.3551 278.818 60.161 277.719 59.7159C276.63 59.2708 275.783 58.5795 275.176 57.642C274.57 56.7045 274.272 55.5208 274.282 54.0909V32.9545ZM298.003 60.4261C295.797 60.4261 293.889 59.9574 292.279 59.0199C290.678 58.0729 289.443 56.7566 288.571 55.071C287.7 53.3759 287.265 51.411 287.265 49.1761C287.265 46.9223 287.7 44.9527 288.571 43.267C289.443 41.572 290.678 40.2557 292.279 39.3182C293.889 38.3712 295.797 37.8977 298.003 37.8977C300.21 37.8977 302.113 38.3712 303.713 39.3182C305.323 40.2557 306.564 41.572 307.435 43.267C308.306 44.9527 308.742 46.9223 308.742 49.1761C308.742 51.411 308.306 53.3759 307.435 55.071C306.564 56.7566 305.323 58.0729 303.713 59.0199C302.113 59.9574 300.21 60.4261 298.003 60.4261ZM298.032 55.7386C299.035 55.7386 299.873 55.4545 300.546 54.8864C301.218 54.3087 301.725 53.5227 302.066 52.5284C302.416 51.5341 302.591 50.4025 302.591 49.1335C302.591 47.8646 302.416 46.733 302.066 45.7386C301.725 44.7443 301.218 43.9583 300.546 43.3807C299.873 42.803 299.035 42.5142 298.032 42.5142C297.018 42.5142 296.166 42.803 295.475 43.3807C294.793 43.9583 294.277 44.7443 293.926 45.7386C293.586 46.733 293.415 47.8646 293.415 49.1335C293.415 50.4025 293.586 51.5341 293.926 52.5284C294.277 53.5227 294.793 54.3087 295.475 54.8864C296.166 55.4545 297.018 55.7386 298.032 55.7386ZM312.676 60V38.1818H318.543V41.9886H318.77C319.168 40.6345 319.836 39.6117 320.773 38.9205C321.711 38.2197 322.79 37.8693 324.012 37.8693C324.315 37.8693 324.641 37.8883 324.992 37.9261C325.342 37.964 325.65 38.0161 325.915 38.0824V43.4517C325.631 43.3665 325.238 43.2907 324.736 43.2244C324.234 43.1581 323.775 43.125 323.358 43.125C322.468 43.125 321.673 43.3191 320.972 43.7074C320.281 44.0862 319.731 44.6165 319.324 45.2983C318.926 45.9801 318.728 46.7661 318.728 47.6562V60H312.676ZM333.444 68.1818C332.676 68.1818 331.957 68.1203 331.284 67.9972C330.622 67.8835 330.072 67.7367 329.637 67.5568L331 63.0398C331.711 63.2576 332.35 63.3759 332.918 63.3949C333.496 63.4138 333.993 63.2813 334.409 62.9972C334.836 62.7131 335.181 62.2301 335.446 61.5483L335.801 60.625L327.975 38.1818H334.338L338.855 54.2045H339.083L343.642 38.1818H350.049L341.569 62.358C341.161 63.5322 340.607 64.5549 339.907 65.4261C339.215 66.3068 338.339 66.9839 337.279 67.4574C336.218 67.9403 334.94 68.1818 333.444 68.1818Z" fill="black"/>
<path d="M355.755 11.3247C357.152 8.33855 360.655 5.54175 362.875 6.58046C365.095 7.61918 365.192 12.1001 363.795 15.0863C361.306 20.4041 353.52 26.5744 351.198 31.5357C353.478 26.6635 353.176 17.4693 355.755 11.3247Z" fill="#FFC240"/>
<path d="M369.723 22.913C372.426 21.0254 376.857 20.3542 378.261 22.3637C379.664 24.3731 377.508 28.3024 374.805 30.19C369.991 33.5515 360.163 35.0023 355.672 38.1385C360.082 35.0586 364.417 26.9452 369.723 22.913Z" fill="#FFC240"/>
<path d="M378.36 37.713C381.645 37.4298 385.818 39.0642 386.029 41.5061C386.239 43.948 382.408 46.2727 379.123 46.556C373.273 47.0604 364.036 43.4025 358.579 43.8731C363.938 43.411 371.75 38.5523 378.36 37.713Z" fill="#FFC240"/>
</svg>
